<svg width="94" height="94" xmlns="http://www.w3.org/2000/svg">
 <g>
  <title>Layer 1</title>
  <rect fill="none" stroke-width="4" x="2" y="2" width="90" height="90" id="svg_5" rx="15" stroke="#d7d7d7"/>
  <path transform="rotate(180 47 47)" stroke="null" fill="#d7d7d7" d="m78.85,45.92345c0,-3.44491 -0.10397,-6.19298 -3.5264,-6.19298l-9.63508,0c-1.51734,0 -2.74806,-1.23916 -2.74806,-2.76773l0,-18.48902c0,-3.26789 -0.93569,-4.35251 -4.1811,-4.35251l-23.52995,-0.09273c-3.24822,0 -3.9535,1.77023 -3.9535,5.03812l0,17.89894c0,1.52858 -1.23073,2.76773 -2.74806,2.76773l-8.61791,0c-4.39465,-0.00562 -4.75994,2.06245 -4.75994,5.64786l0,3.93945c0,0.92726 0.62379,1.66064 1.1661,2.32658l0,0l0,0c0.16859,0.20793 0.35685,0.39619 0.56198,0.56198l26.45222,26.33983c1.877,1.89386 4.9201,1.89667 6.79991,0.00843l27.21089,-26.28644c0.23603,-0.18264 0.45239,-0.38776 0.64065,-0.62098l0,0s0,0 0,0c0.54231,-0.66594 0.86544,-1.51734 0.86544,-2.4446l0,-3.27632l0.00281,-0.00562z" id="svg_1"/>
 </g>

</svg>