<svg width="94" height="94" xmlns="http://www.w3.org/2000/svg">
 <g>
  <title>Layer 1</title>
  <rect y="2" x="2" fill="none" stroke="#ffffff" stroke-width="4" width="90" height="90" id="svg_7" rx="15"/>
  <g y="-451.75976" x="-1284.0746" id="svg_4" stroke="null" transform="matrix(0.837165 0 0 0.837165 1098.86 236.723)">
   <svg viewBox="0 0 448 512" id="svg_13" fill="#ffffff" stroke="null" x="-1301.55046" y="-273.23225" xmlns="http://www.w3.org/2000/svg">
    <!--!Font Awesome Free 6.7.2 by @fontawesome - https://fontawesome.com License - https://fontawesome.com/license/free Copyright 2025 Fonticons, Inc.-->
    <path d="m301.1,34.8c11.5,5.2 18.9,16.6 18.9,29.2l0,384c0,12.6 -7.4,24 -18.9,29.2s-25,3.1 -34.4,-5.3l-134.9,-119.9l-67.8,0c-35.3,0 -64,-28.7 -64,-64l0,-64c0,-35.3 28.7,-64 64,-64l67.8,0l134.9,-119.9c9.4,-8.4 22.9,-10.4 34.4,-5.3zm111.5,146.7c21.5,17.6 35.4,44.4 35.4,74.5s-13.9,56.9 -35.4,74.5c-10.3,8.4 -25.4,6.8 -33.8,-3.5s-6.8,-25.4 3.5,-33.8c10.8,-8.8 17.7,-22.2 17.7,-37.2s-6.9,-28.4 -17.7,-37.3c-10.3,-8.4 -11.8,-23.5 -3.5,-33.8s23.5,-11.8 33.8,-3.5l0,0.1z" id="svg_14" fill="#ffffff" stroke="null"/>
   </svg>
  </g>
 </g>

</svg>