<svg width="94" height="94" xmlns="http://www.w3.org/2000/svg">
 <g>
  <title>Layer 1</title>
  <g id="svg_9">
   <rect fill="none" stroke="#ffffff" stroke-width="4" x="2" y="2" width="90" height="90" id="svg_5" rx="15"/>
   <path d="m81.29898,47.32376c0,2.54697 -1.76938,4.5421 -3.77467,4.5421l-3.77467,0l0.08257,22.66805c0,0.38205 -0.02359,0.76409 -0.05898,1.14614l0,2.29227c0,3.12711 -2.11146,5.65994 -4.71834,5.65994l-1.88734,0c-0.12975,0 -0.25951,0 -0.38926,-0.01415c-0.16514,0.01415 -0.33028,0.01415 -0.49543,0.01415l-3.83365,-0.01415l-2.831,0c-2.60688,0 -4.71834,-2.53282 -4.71834,-5.65994l0,-3.39596l0,-9.0559c0,-2.50452 -1.68681,-4.52795 -3.77467,-4.52795l-7.54934,0c-2.08786,0 -3.77467,2.02343 -3.77467,4.52795l0,9.0559l0,3.39596c0,3.12711 -2.11146,5.65994 -4.71834,5.65994l-2.831,0l-3.76287,0c-0.17694,0 -0.35388,-0.01415 -0.53081,-0.0283c-0.14155,0.01415 -0.2831,0.0283 -0.42465,0.0283l-1.88734,0c-2.60688,0 -4.71834,-2.53282 -4.71834,-5.65994l0,-15.84782c0,-0.12735 0,-0.26885 0.0118,-0.3962l0,-9.86244l-3.77467,0c-2.12325,0 -3.77467,-1.98098 -3.77467,-4.5421c0,-1.27349 0.35388,-2.40547 1.17958,-3.39596l30.23275,-31.61075c0.82571,-0.99049 1.76938,-1.13199 2.59509,-1.13199s1.76938,0.283 2.47713,0.99049l30.12659,31.76639c0.94367,0.99049 1.4155,2.12248 1.29754,3.39596l0,0.00001z" id="svg_3" fill="#ffffff" stroke="null"/>
  </g>
 </g>

</svg>