<svg width="94" height="94" xmlns="http://www.w3.org/2000/svg">
 <g>
  <title>Layer 1</title>
  <rect fill="#ffff00" stroke-width="4" x="2" y="2.369" width="90" height="90" id="svg_5" rx="15" stroke="#ffff00"/>
  <path stroke="null" fill="#000000" id="svg_2" d="m55.9752,31.90226c0,-5.77766 4.67964,-10.4573 10.4573,-10.4573s10.4573,4.67964 10.4573,10.4573l0,6.27438c0,2.31368 1.86924,4.18292 4.18292,4.18292s4.18292,-1.86924 4.18292,-4.18292l0,-6.27438c0,-10.39194 -8.43119,-18.82313 -18.82313,-18.82313s-18.82313,8.43119 -18.82313,18.82313l0,6.27438l-29.28043,0c-4.61428,0 -8.36584,3.75155 -8.36584,8.36584l0,25.09751c0,4.61428 3.75155,8.36584 8.36584,8.36584l41.82918,0c4.61428,0 8.36584,-3.75155 8.36584,-8.36584l0,-25.09751c0,-4.61428 -3.75155,-8.36584 -8.36584,-8.36584l-4.18292,0l0,-6.27438z"/>
 </g>

</svg>