<svg width="94" height="94" xmlns="http://www.w3.org/2000/svg">
 <g>
  <title>Layer 1</title>
  <rect stroke="#ffff00" rx="15" id="svg_5" height="90" width="90" y="2" x="2" stroke-width="4" fill="none"/>
  <path fill="#ffff00" id="svg_1" d="m36.1752,31.71975l0,6.28282l20.94274,0l0,-6.28282c0,-5.78543 -4.68594,-10.47137 -10.47137,-10.47137s-10.47137,4.68594 -10.47137,10.47137zm-8.3771,6.28282l0,-6.28282c0,-10.40592 8.44254,-18.84846 18.84846,-18.84846s18.84846,8.44254 18.84846,18.84846l0,6.28282l2.09427,0c4.62049,0 8.3771,3.7566 8.3771,8.3771l0,25.13129c0,4.62049 -3.7566,8.3771 -8.3771,8.3771l-41.88548,0c-4.62049,0 -8.3771,-3.7566 -8.3771,-8.3771l0,-25.13129c0,-4.62049 3.7566,-8.3771 8.3771,-8.3771l2.09427,0z"/>
 </g>

</svg>