<svg width="94" height="94" xmlns="http://www.w3.org/2000/svg">
 <g>
  <title>Layer 1</title>
  <g id="svg_1">
   <rect fill="none" stroke="#ff0000" stroke-width="4" x="2" y="2" width="90" height="90" id="svg_8" rx="15"/>
   <path stroke="#ff0000" fill="#ff0000" id="svg_2" d="m51.26031,15.83175c0,-2.59354 -2.09535,-4.68889 -4.68889,-4.68889s-4.68889,2.09535 -4.68889,4.68889l0,32.82222c0,2.59354 2.09535,4.68889 4.68889,4.68889s4.68889,-2.09535 4.68889,-4.68889l0,-32.82222zm-21.17326,12.98236c1.99278,-1.65576 2.25653,-4.61562 0.60076,-6.6084s-4.61562,-2.25653 -6.6084,-0.60076c-7.73667,6.44722 -12.67465,16.17667 -12.67465,27.04903c0,19.41493 15.75174,35.16667 35.16667,35.16667s35.16667,-15.75174 35.16667,-35.16667c0,-10.87236 -4.95264,-20.6018 -12.68931,-27.04903c-1.99278,-1.65576 -4.95264,-1.37736 -6.6084,0.60076s-1.37736,4.95264 0.60076,6.6084c5.69993,4.73285 9.30451,11.86875 9.30451,19.83986c0,14.2425 -11.54639,25.78889 -25.78889,25.78889s-25.78889,-11.54639 -25.78889,-25.78889c0,-7.97111 3.61924,-15.10701 9.30451,-19.83986l0.01465,0l0.00001,0z"/>
  </g>
 </g>

</svg>