<svg width="480" height="320" xmlns="http://www.w3.org/2000/svg">
 <g>
  <title>Layer 1</title>
  <rect fill="#000000" stroke-width="0" width="480" height="320" id="svg_6" stroke="#ffffff"/>
  <g id="svg_9">
   <rect rx="15" id="svg_5" height="90" width="90" y="10" x="376" stroke-width="4" stroke="#ffffff" fill="none"/>
   <path stroke="null" fill="#ffffff" id="svg_3" d="m455.29898,55.32376c0,2.54697 -1.76938,4.5421 -3.77467,4.5421l-3.77467,0l0.08257,22.66805c0,0.38205 -0.02359,0.76409 -0.05898,1.14614l0,2.29227c0,3.12711 -2.11146,5.65994 -4.71834,5.65994l-1.88734,0c-0.12975,0 -0.25951,0 -0.38926,-0.01415c-0.16514,0.01415 -0.33028,0.01415 -0.49543,0.01415l-3.83365,-0.01415l-2.831,0c-2.60688,0 -4.71834,-2.53282 -4.71834,-5.65994l0,-3.39596l0,-9.0559c0,-2.50452 -1.68681,-4.52795 -3.77467,-4.52795l-7.54934,0c-2.08786,0 -3.77467,2.02343 -3.77467,4.52795l0,9.0559l0,3.39596c0,3.12711 -2.11146,5.65994 -4.71834,5.65994l-2.831,0l-3.76287,0c-0.17694,0 -0.35388,-0.01415 -0.53081,-0.0283c-0.14155,0.01415 -0.2831,0.0283 -0.42465,0.0283l-1.88734,0c-2.60688,0 -4.71834,-2.53282 -4.71834,-5.65994l0,-15.84782c0,-0.12735 0,-0.26885 0.0118,-0.3962l0,-9.86244l-3.77467,0c-2.12325,0 -3.77467,-1.98098 -3.77467,-4.5421c0,-1.27349 0.35388,-2.40547 1.17958,-3.39596l30.23275,-31.61075c0.82571,-0.99049 1.76938,-1.13199 2.59509,-1.13199s1.76938,0.283 2.47713,0.99049l30.12659,31.76639c0.94367,0.99049 1.4155,2.12248 1.29754,3.39596l0,0.00001z"/>
  </g>
  <g id="svg_1">
   <rect rx="15" id="svg_8" height="90" width="90" y="220" x="376" stroke-width="4" stroke="#ff0000" fill="none"/>
   <path d="m425.26031,233.83175c0,-2.59354 -2.09535,-4.68889 -4.68889,-4.68889s-4.68889,2.09535 -4.68889,4.68889l0,32.82222c0,2.59354 2.09535,4.68889 4.68889,4.68889s4.68889,-2.09535 4.68889,-4.68889l0,-32.82222zm-21.17326,12.98236c1.99278,-1.65576 2.25653,-4.61562 0.60076,-6.6084s-4.61562,-2.25653 -6.6084,-0.60076c-7.73667,6.44722 -12.67465,16.17667 -12.67465,27.04903c0,19.41493 15.75174,35.16667 35.16667,35.16667s35.16667,-15.75174 35.16667,-35.16667c0,-10.87236 -4.95264,-20.6018 -12.68931,-27.04903c-1.99278,-1.65576 -4.95264,-1.37736 -6.6084,0.60076s-1.37736,4.95264 0.60076,6.6084c5.69993,4.73285 9.30451,11.86875 9.30451,19.83986c0,14.2425 -11.54639,25.78889 -25.78889,25.78889s-25.78889,-11.54639 -25.78889,-25.78889c0,-7.97111 3.61924,-15.10701 9.30451,-19.83986l0.01465,0l0.00001,0z" id="svg_2" fill="#ff0000" stroke="#ff0000"/>
  </g>
  <g id="svg_12">
   <rect rx="15" id="svg_7" height="90" width="90" y="115" x="376" stroke-width="4" stroke="#ffffff" fill="none"/>
   <g transform="matrix(0.262625 0 0 0.262625 365.059 119.421)" stroke="null" id="svg_4">
    <svg y="-1.6483" x="-24.72445" stroke="null" fill="#ffffff" id="svg_10" viewBox="0 0 448 512" xmlns="http://www.w3.org/2000/svg">
     <!--!Font Awesome Free 6.7.2 by @fontawesome - https://fontawesome.com License - https://fontawesome.com/license/free Copyright 2025 Fonticons, Inc.-->
     <path stroke="null" fill="#ffffff" id="svg_11" d="m301.1,34.8c11.5,5.2 18.9,16.6 18.9,29.2l0,384c0,12.6 -7.4,24 -18.9,29.2s-25,3.1 -34.4,-5.3l-134.9,-119.9l-67.8,0c-35.3,0 -64,-28.7 -64,-64l0,-64c0,-35.3 28.7,-64 64,-64l67.8,0l134.9,-119.9c9.4,-8.4 22.9,-10.4 34.4,-5.3zm111.5,146.7c21.5,17.6 35.4,44.4 35.4,74.5s-13.9,56.9 -35.4,74.5c-10.3,8.4 -25.4,6.8 -33.8,-3.5s-6.8,-25.4 3.5,-33.8c10.8,-8.8 17.7,-22.2 17.7,-37.2s-6.9,-28.4 -17.7,-37.3c-10.3,-8.4 -11.8,-23.5 -3.5,-33.8s23.5,-11.8 33.8,-3.5l0,0.1z"/>
    </svg>
   </g>
  </g>
 </g>

</svg>